<?xml version="1.0" encoding="UTF-8" standalone="no"?>
<!DOCTYPE svg PUBLIC "-//W3C//DTD SVG 1.1//EN"
 "http://www.w3.org/Graphics/SVG/1.1/DTD/svg11.dtd">
<!-- Generated by graphviz version 11.0.0 (0)
 -->
<!-- Title: snakemake_dag Pages: 1 -->
<svg width="253pt" height="332pt"
 viewBox="0.00 0.00 252.88 332.00" xmlns="http://www.w3.org/2000/svg" xmlns:xlink="http://www.w3.org/1999/xlink">
<g id="graph0" class="graph" transform="scale(1 1) rotate(0) translate(4 328)">
<title>snakemake_dag</title>
<polygon fill="white" stroke="none" points="-4,4 -4,-328 248.88,-328 248.88,4 -4,4"/>
<!-- 0 -->
<g id="node1" class="node">
<title>0</title>
<path fill="none" stroke="#56d88a" stroke-width="2" d="M115.88,-36C115.88,-36 79.62,-36 79.62,-36 73.62,-36 67.62,-30 67.62,-24 67.62,-24 67.62,-12 67.62,-12 67.62,-6 73.62,0 79.62,0 79.62,0 115.88,0 115.88,0 121.88,0 127.88,-6 127.88,-12 127.88,-12 127.88,-24 127.88,-24 127.88,-30 121.88,-36 115.88,-36"/>
<text text-anchor="middle" x="97.75" y="-14.12" font-family="sans" font-size="10.00">plot_quals</text>
</g>
<!-- 1 -->
<g id="node2" class="node">
<title>1</title>
<path fill="none" stroke="#d85656" stroke-width="2" d="M121.12,-108C121.12,-108 74.38,-108 74.38,-108 68.38,-108 62.38,-102 62.38,-96 62.38,-96 62.38,-84 62.38,-84 62.38,-78 68.38,-72 74.38,-72 74.38,-72 121.12,-72 121.12,-72 127.12,-72 133.12,-78 133.12,-84 133.12,-84 133.12,-96 133.12,-96 133.12,-102 127.12,-108 121.12,-108"/>
<text text-anchor="middle" x="97.75" y="-86.12" font-family="sans" font-size="10.00">bcftools_call</text>
</g>
<!-- 1&#45;&gt;0 -->
<g id="edge1" class="edge">
<title>1&#45;&gt;0</title>
<path fill="none" stroke="grey" stroke-width="2" d="M97.75,-71.34C97.75,-64.75 97.75,-57.08 97.75,-49.67"/>
<polygon fill="grey" stroke="grey" stroke-width="2" points="101.25,-49.93 97.75,-39.93 94.25,-49.93 101.25,-49.93"/>
</g>
<!-- 2 -->
<g id="node3" class="node">
<title>2</title>
<path fill="none" stroke="#56c1d8" stroke-width="2" d="M65.5,-252C65.5,-252 12,-252 12,-252 6,-252 0,-246 0,-240 0,-240 0,-228 0,-228 0,-222 6,-216 12,-216 12,-216 65.5,-216 65.5,-216 71.5,-216 77.5,-222 77.5,-228 77.5,-228 77.5,-240 77.5,-240 77.5,-246 71.5,-252 65.5,-252"/>
<text text-anchor="middle" x="38.75" y="-230.12" font-family="sans" font-size="10.00">samtools_sort</text>
</g>
<!-- 2&#45;&gt;1 -->
<g id="edge2" class="edge">
<title>2&#45;&gt;1</title>
<path fill="none" stroke="grey" stroke-width="2" d="M25.34,-215.05C13.2,-196.41 -1,-166.84 11.75,-144 20.27,-128.75 35.18,-117.34 50.21,-109.09"/>
<polygon fill="grey" stroke="grey" stroke-width="2" points="51.54,-112.34 58.93,-104.75 48.42,-106.08 51.54,-112.34"/>
</g>
<!-- 6 -->
<g id="node7" class="node">
<title>6</title>
<path fill="none" stroke="#d8bc56" stroke-width="2" d="M92.88,-180C92.88,-180 32.62,-180 32.62,-180 26.62,-180 20.62,-174 20.62,-168 20.62,-168 20.62,-156 20.62,-156 20.62,-150 26.62,-144 32.62,-144 32.62,-144 92.88,-144 92.88,-144 98.88,-144 104.88,-150 104.88,-156 104.88,-156 104.88,-168 104.88,-168 104.88,-174 98.88,-180 92.88,-180"/>
<text text-anchor="middle" x="62.75" y="-158.12" font-family="sans" font-size="10.00">samtools_index</text>
</g>
<!-- 2&#45;&gt;6 -->
<g id="edge8" class="edge">
<title>2&#45;&gt;6</title>
<path fill="none" stroke="grey" stroke-width="2" d="M44.81,-215.34C47.12,-208.59 49.83,-200.69 52.43,-193.11"/>
<polygon fill="grey" stroke="grey" stroke-width="2" points="55.7,-194.36 55.63,-183.77 49.08,-192.09 55.7,-194.36"/>
</g>
<!-- 3 -->
<g id="node4" class="node">
<title>3</title>
<path fill="none" stroke="#88d856" stroke-width="2" d="M56.5,-324C56.5,-324 21,-324 21,-324 15,-324 9,-318 9,-312 9,-312 9,-300 9,-300 9,-294 15,-288 21,-288 21,-288 56.5,-288 56.5,-288 62.5,-288 68.5,-294 68.5,-300 68.5,-300 68.5,-312 68.5,-312 68.5,-318 62.5,-324 56.5,-324"/>
<text text-anchor="middle" x="38.75" y="-307.75" font-family="sans" font-size="10.00">bwa_map</text>
<text text-anchor="middle" x="38.75" y="-296.5" font-family="sans" font-size="10.00">sample: A</text>
</g>
<!-- 3&#45;&gt;2 -->
<g id="edge6" class="edge">
<title>3&#45;&gt;2</title>
<path fill="none" stroke="grey" stroke-width="2" d="M38.75,-287.34C38.75,-280.75 38.75,-273.08 38.75,-265.67"/>
<polygon fill="grey" stroke="grey" stroke-width="2" points="42.25,-265.93 38.75,-255.93 35.25,-265.93 42.25,-265.93"/>
</g>
<!-- 4 -->
<g id="node5" class="node">
<title>4</title>
<path fill="none" stroke="#56c1d8" stroke-width="2" d="M183.5,-252C183.5,-252 130,-252 130,-252 124,-252 118,-246 118,-240 118,-240 118,-228 118,-228 118,-222 124,-216 130,-216 130,-216 183.5,-216 183.5,-216 189.5,-216 195.5,-222 195.5,-228 195.5,-228 195.5,-240 195.5,-240 195.5,-246 189.5,-252 183.5,-252"/>
<text text-anchor="middle" x="156.75" y="-230.12" font-family="sans" font-size="10.00">samtools_sort</text>
</g>
<!-- 4&#45;&gt;1 -->
<g id="edge3" class="edge">
<title>4&#45;&gt;1</title>
<path fill="none" stroke="grey" stroke-width="2" d="M149.28,-215.02C139.44,-191.33 122,-149.35 110.16,-120.86"/>
<polygon fill="grey" stroke="grey" stroke-width="2" points="113.39,-119.53 106.32,-111.63 106.93,-122.21 113.39,-119.53"/>
</g>
<!-- 7 -->
<g id="node8" class="node">
<title>7</title>
<path fill="none" stroke="#d8bc56" stroke-width="2" d="M232.88,-180C232.88,-180 172.62,-180 172.62,-180 166.62,-180 160.62,-174 160.62,-168 160.62,-168 160.62,-156 160.62,-156 160.62,-150 166.62,-144 172.62,-144 172.62,-144 232.88,-144 232.88,-144 238.88,-144 244.88,-150 244.88,-156 244.88,-156 244.88,-168 244.88,-168 244.88,-174 238.88,-180 232.88,-180"/>
<text text-anchor="middle" x="202.75" y="-158.12" font-family="sans" font-size="10.00">samtools_index</text>
</g>
<!-- 4&#45;&gt;7 -->
<g id="edge9" class="edge">
<title>4&#45;&gt;7</title>
<path fill="none" stroke="grey" stroke-width="2" d="M168.36,-215.34C173.06,-208.18 178.62,-199.73 183.87,-191.73"/>
<polygon fill="grey" stroke="grey" stroke-width="2" points="186.76,-193.71 189.32,-183.43 180.91,-189.87 186.76,-193.71"/>
</g>
<!-- 5 -->
<g id="node6" class="node">
<title>5</title>
<path fill="none" stroke="#88d856" stroke-width="2" d="M174.88,-324C174.88,-324 138.62,-324 138.62,-324 132.62,-324 126.62,-318 126.62,-312 126.62,-312 126.62,-300 126.62,-300 126.62,-294 132.62,-288 138.62,-288 138.62,-288 174.88,-288 174.88,-288 180.88,-288 186.88,-294 186.88,-300 186.88,-300 186.88,-312 186.88,-312 186.88,-318 180.88,-324 174.88,-324"/>
<text text-anchor="middle" x="156.75" y="-307.75" font-family="sans" font-size="10.00">bwa_map</text>
<text text-anchor="middle" x="156.75" y="-296.5" font-family="sans" font-size="10.00">sample: B</text>
</g>
<!-- 5&#45;&gt;4 -->
<g id="edge7" class="edge">
<title>5&#45;&gt;4</title>
<path fill="none" stroke="grey" stroke-width="2" d="M156.75,-287.34C156.75,-280.75 156.75,-273.08 156.75,-265.67"/>
<polygon fill="grey" stroke="grey" stroke-width="2" points="160.25,-265.93 156.75,-255.93 153.25,-265.93 160.25,-265.93"/>
</g>
<!-- 6&#45;&gt;1 -->
<g id="edge4" class="edge">
<title>6&#45;&gt;1</title>
<path fill="none" stroke="grey" stroke-width="2" d="M71.58,-143.34C75.08,-136.34 79.19,-128.12 83.11,-120.28"/>
<polygon fill="grey" stroke="grey" stroke-width="2" points="86.1,-122.12 87.45,-111.61 79.84,-118.99 86.1,-122.12"/>
</g>
<!-- 7&#45;&gt;1 -->
<g id="edge5" class="edge">
<title>7&#45;&gt;1</title>
<path fill="none" stroke="grey" stroke-width="2" d="M175.98,-143.15C163.52,-134.84 148.48,-124.82 134.93,-115.79"/>
<polygon fill="grey" stroke="grey" stroke-width="2" points="137.25,-113.13 126.99,-110.49 133.37,-118.95 137.25,-113.13"/>
</g>
</g>
</svg>
